<svg width="100" height="26" viewBox="0 0 100 26" fill="none" xmlns="http://www.w3.org/2000/svg">
<g filter="url(#filter0_b)">
<path d="M0.285156 26V0.40625H8.16016C10.4102 0.40625 12.4199 0.916016 14.1895 1.93555C15.9707 2.94336 17.3594 4.38477 18.3555 6.25977C19.3516 8.12305 19.8496 10.2441 19.8496 12.623V13.8008C19.8496 16.1797 19.3574 18.2949 18.373 20.1465C17.4004 21.998 16.0234 23.4336 14.2422 24.4531C12.4609 25.4727 10.4512 25.9883 8.21289 26H0.285156ZM5.55859 4.67773V21.7637H8.10742C10.1699 21.7637 11.7461 21.0898 12.8359 19.7422C13.9258 18.3945 14.4824 16.4668 14.5059 13.959V12.6055C14.5059 10.0039 13.9668 8.03516 12.8887 6.69922C11.8105 5.35156 10.2344 4.67773 8.16016 4.67773H5.55859ZM99.9215 26H94.648V15.0312H84.3648V26H79.0914V0.40625H84.3648V10.7773H94.648V0.40625H99.9215V26Z" fill="black"/>
<path d="M49.3738 16.6309H45.1727V26H39.8992V0.40625H49.409C52.4324 0.40625 54.7645 1.08008 56.4051 2.42773C58.0457 3.77539 58.866 5.67969 58.866 8.14062C58.866 9.88672 58.4852 11.3457 57.7234 12.5176C56.9734 13.6777 55.8309 14.6035 54.2957 15.2949L59.8328 25.7539V26H54.1727L49.3738 16.6309ZM45.1727 12.3594H49.4266C50.7508 12.3594 51.7762 12.0254 52.5027 11.3574C53.2293 10.6777 53.5926 9.74609 53.5926 8.5625C53.5926 7.35547 53.2469 6.40625 52.5555 5.71484C51.8758 5.02344 50.827 4.67773 49.409 4.67773H45.1727V12.3594Z" fill="#ABA69D"/>
</g>
<defs>
<filter id="filter0_b" x="-3.71484" y="-3.59375" width="107.636" height="33.5938" filterUnits="userSpaceOnUse" color-interpolation-filters="sRGB">
<feFlood flood-opacity="0" result="BackgroundImageFix"/>
<feGaussianBlur in="BackgroundImage" stdDeviation="2"/>
<feComposite in2="SourceAlpha" operator="in" result="effect1_backgroundBlur"/>
<feBlend mode="normal" in="SourceGraphic" in2="effect1_backgroundBlur" result="shape"/>
</filter>
</defs>
</svg>
